# xmcd CD database file
#
# Track frame offsets:
#	150
#	25476
#	67956
#	90807
#	129266
#	148432
#	153320
#	172658
#	208626
#
# Disc length: 3206 seconds
#
# Revision: 0
# Processed by: cddbd v1.5.2PL0 Copyright (c) Steve Scherf et al.
# Submitted via: CDex 1.51
#
DISCID=6e0c8409
DTITLE=Fourth Floor - Fourth Floor
DYEAR=2010
DGENRE=Jazz
TTITLE0=Walczyk
TTITLE1=Glebia Golebia
TTITLE2=Sjanek
TTITLE3=Katakumba
TTITLE4=Wodogrzmoty
TTITLE5=Przesmyk
TTITLE6=Siklawa
TTITLE7=Grünberg
TTITLE8=Pogoda Zmienna Jest
EXTD=YEAR: 2010
EXTT0=
EXTT1=
EXTT2=
EXTT3=
EXTT4=
EXTT5=
EXTT6=
EXTT7=
EXTT8=
PLAYORDER=
